<?xml version="1.0" standalone="no"?>
<!DOCTYPE svg PUBLIC "-//W3C//DTD SVG 20010904//EN"
 "http://www.w3.org/TR/2001/REC-SVG-20010904/DTD/svg10.dtd">
<svg version="1.0" xmlns="http://www.w3.org/2000/svg"
 width="421.000000pt" height="593.000000pt" viewBox="0 0 421.000000 593.000000"
 preserveAspectRatio="xMidYMid meet">
<metadata>
Created by potrace 1.16, written by Peter Selinger 2001-2019
</metadata>
<g transform="translate(0.000000,593.000000) scale(0.100000,-0.100000)"
fill="#000000" stroke="none">
<path d="M3152 5878 c-17 -17 -15 -53 3 -68 8 -7 15 -16 15 -21 0 -5 -77 -8
-170 -8 -148 -1 -172 2 -177 16 -20 51 69 70 130 29 20 -14 37 -22 37 -18 0 4
-19 20 -42 35 -73 47 -153 30 -146 -32 2 -16 -2 -25 -10 -23 -17 3 -15 -15 3
-22 12 -4 15 -24 15 -91 0 -50 4 -85 10 -85 6 0 10 37 10 90 l0 90 75 0 75 0
0 -30 c0 -29 -1 -30 -49 -30 -55 0 -67 -10 -51 -40 14 -26 40 -26 40 0 0 16 7
20 30 20 29 0 30 -1 30 -50 0 -87 19 -54 22 38 l3 87 35 0 c32 0 35 -3 38 -33
2 -23 -2 -38 -14 -46 -10 -8 -15 -20 -11 -30 8 -20 47 -21 47 -1 0 10 11 15
35 15 34 0 35 -1 35 -40 0 -22 4 -40 10 -40 5 0 11 39 12 88 l3 87 93 3 c77 2
93 0 98 -13 10 -24 -3 -30 -64 -30 -69 0 -82 -7 -82 -45 0 -34 50 -97 68 -86
8 5 2 16 -18 33 -43 35 -36 83 12 83 15 0 17 -5 12 -25 -8 -32 -1 -31 31 1 14
14 30 22 35 19 6 -3 10 -31 10 -61 0 -30 5 -54 10 -54 6 0 10 37 10 90 0 89 0
90 25 90 25 0 25 -1 25 -90 0 -73 3 -90 15 -90 12 0 15 17 15 90 0 77 2 90 17
90 9 0 13 3 10 6 -4 4 -74 6 -158 5 -166 -3 -199 6 -199 53 0 24 24 41 41 30
5 -3 9 -1 9 4 0 9 -23 22 -39 22 -4 0 -12 -5 -19 -12z"/>
<path d="M3670 5866 c0 -12 10 -16 35 -16 28 0 37 -5 50 -29 18 -37 10 -43
-53 -41 -73 3 -74 -3 -2 -9 49 -5 66 -10 68 -22 2 -12 -7 -18 -33 -22 -48 -8
-65 -23 -65 -57 0 -37 33 -64 78 -64 42 0 55 -12 40 -39 -11 -22 -5 -32 17
-24 19 8 19 41 0 57 -12 10 -12 16 -4 26 16 19 4 44 -21 44 -13 0 -20 -7 -20
-20 0 -11 -6 -23 -14 -26 -21 -8 -56 14 -56 35 0 25 21 41 64 48 32 5 36 9 36
34 l0 29 80 0 c74 0 80 -1 80 -21 0 -18 -4 -20 -30 -14 -40 9 -80 -16 -80 -50
0 -32 40 -59 80 -53 26 4 30 1 30 -19 0 -13 4 -23 10 -23 5 0 11 39 12 88 3
85 3 87 28 87 25 0 25 -2 28 -87 4 -116 22 -114 22 2 0 79 2 90 17 90 14 0 13
3 -5 16 -12 8 -22 21 -22 28 0 24 -47 58 -76 54 -25 -2 -29 -8 -29 -32 0 -16
5 -31 11 -33 6 -2 10 7 10 19 -1 18 5 24 25 26 19 2 28 -3 38 -24 7 -16 8 -31
3 -36 -5 -5 -60 -7 -122 -6 l-114 3 -26 45 c-21 36 -32 46 -58 48 -24 2 -32
-1 -32 -12z"/>
<path d="M1534 5856 c-8 -20 -1 -49 12 -53 6 -2 10 7 10 19 -1 36 46 38 62 3
7 -15 10 -31 7 -36 -4 -5 -32 -9 -63 -10 -44 0 -52 -2 -34 -9 16 -7 22 -18 22
-40 0 -26 -3 -30 -28 -30 -26 0 -28 3 -24 33 5 40 -15 60 -55 55 -36 -4 -42
-32 -14 -62 l21 -23 -25 -11 c-25 -12 -34 -32 -14 -32 6 0 23 7 39 16 17 10
35 14 46 10 17 -7 15 -10 -16 -36 -50 -41 -29 -50 25 -11 l45 32 0 -40 c0 -23
5 -41 10 -41 6 0 10 37 10 91 l0 90 28 -3 c27 -3 27 -3 30 -90 4 -116 22 -114
22 2 0 79 2 90 17 90 14 0 13 3 -5 16 -12 8 -22 21 -22 28 0 39 -93 76 -106
42z"/>
<path d="M2501 5851 c-7 -13 -6 -24 4 -37 14 -18 14 -17 15 9 0 21 5 27 23 27
29 0 47 -18 47 -47 l0 -24 -390 3 c-215 2 -390 0 -390 -4 0 -4 10 -8 23 -10
28 -4 38 -63 12 -82 -18 -13 -12 -41 12 -50 9 -4 17 1 20 14 4 15 14 20 39 20
33 0 34 -1 34 -40 0 -25 5 -40 13 -40 9 0 12 24 12 87 l0 88 28 3 27 3 0 -90
c0 -117 18 -120 22 -3 l3 87 75 0 c63 0 75 -3 78 -17 3 -14 -3 -18 -27 -18
-52 0 -81 -16 -81 -46 0 -27 35 -94 49 -94 21 0 19 16 -5 41 -32 33 -28 60 9
70 47 13 57 3 57 -57 0 -30 5 -54 10 -54 6 0 10 37 10 91 l0 90 28 -3 c27 -3
27 -3 30 -90 4 -116 22 -114 22 2 l0 91 103 -3 c94 -3 102 -4 102 -23 0 -17
-8 -21 -50 -25 -47 -5 -48 -6 -27 -18 26 -15 29 -50 6 -59 -22 -8 -44 6 -71
47 -28 41 -30 17 -3 -27 19 -32 52 -48 87 -41 14 3 18 13 18 41 0 32 3 37 23
37 20 0 22 -5 22 -55 0 -30 5 -55 10 -55 6 0 10 37 10 91 l0 90 28 -3 27 -3
-3 -87 c-2 -74 0 -88 13 -88 12 0 15 16 15 89 0 77 2 90 18 94 14 4 14 6 -5
12 -13 4 -23 13 -23 20 0 7 -9 24 -21 39 -25 32 -73 36 -88 7z"/>
<path d="M180 5780 c-49 -3 -78 -8 -67 -12 13 -6 17 -19 17 -52 0 -38 4 -48
25 -62 14 -9 34 -14 45 -11 17 4 20 0 20 -24 0 -19 5 -29 15 -29 12 0 15 17
15 91 l0 90 48 -3 c40 -3 47 -6 50 -26 2 -13 -3 -24 -12 -27 -9 -3 -23 -7 -31
-10 -13 -4 -14 -9 -4 -27 17 -33 71 -88 86 -88 19 0 16 18 -4 29 -10 6 -26 17
-37 25 -18 14 -18 16 3 42 11 15 21 40 21 55 0 27 3 29 40 29 39 0 40 -1 40
-36 0 -23 -6 -42 -17 -50 -17 -12 -17 -14 5 -36 l23 -23 5 23 c5 18 13 22 45
22 39 0 39 0 39 -40 0 -22 5 -40 10 -40 6 0 10 37 10 90 0 77 2 90 17 90 9 0
14 2 11 6 -8 7 -312 10 -418 4z"/>
<path d="M730 5779 c0 -4 7 -9 15 -13 10 -3 15 -19 15 -46 0 -53 30 -85 72
-76 29 6 30 5 25 -24 -5 -22 -3 -30 8 -30 12 0 15 17 15 90 l0 91 118 -3 c109
-3 117 -4 117 -23 0 -17 -8 -21 -65 -25 -59 -5 -63 -6 -42 -18 26 -15 29 -50
6 -59 -22 -8 -44 6 -71 47 -28 41 -30 17 -3 -27 19 -32 52 -48 87 -41 14 3 18
13 18 41 0 44 25 51 43 12 13 -29 50 -46 81 -38 17 4 21 1 21 -21 0 -14 5 -26
10 -26 6 0 10 35 10 85 0 69 3 86 18 94 9 6 13 11 7 11 -72 5 -505 3 -505 -1z"/>
<path d="M1543 5438 c2 -7 13 -12 25 -10 18 3 52 -29 52 -50 0 -5 -41 -8 -91
-8 -57 0 -88 -4 -84 -10 3 -5 15 -10 25 -10 29 0 35 -21 11 -39 l-22 -17 22
-28 c17 -22 28 -27 50 -24 25 4 29 1 29 -19 0 -13 5 -23 10 -23 6 0 10 32 10
75 0 68 2 75 20 75 18 0 20 -7 20 -69 0 -39 5 -73 10 -76 6 -4 10 22 10 69 l0
76 35 0 c30 0 35 -3 35 -25 0 -13 -7 -28 -17 -33 -19 -11 -11 -42 12 -42 11 0
15 12 15 50 0 49 1 50 30 50 l30 0 0 -75 c0 -43 4 -75 10 -75 6 0 10 32 10 75
0 61 3 75 16 75 8 0 12 5 9 10 -3 6 -46 10 -94 10 l-88 0 -27 40 c-19 29 -33
40 -52 40 -16 0 -24 -5 -21 -12z"/>
<path d="M3382 5438 c3 -7 14 -12 26 -10 18 3 52 -29 52 -50 0 -5 -121 -8
-270 -8 -173 0 -270 -4 -270 -10 0 -5 9 -10 20 -10 23 0 28 -38 8 -70 -10 -15
-10 -22 0 -32 11 -11 16 -10 26 5 7 9 25 17 40 17 23 0 26 -4 26 -35 0 -19 5
-35 10 -35 6 0 10 32 10 75 l0 75 60 0 c69 0 80 -14 19 -24 l-41 -7 6 -47 c4
-26 9 -55 12 -65 9 -30 94 -64 94 -37 0 6 -9 10 -21 10 -49 0 -76 39 -47 68
14 14 58 16 58 2 0 -5 -8 -13 -17 -19 -21 -11 -11 -26 12 -17 11 4 15 15 13
33 -3 25 -7 28 -43 29 -59 2 -62 3 -41 19 11 8 32 15 48 15 21 0 28 5 28 20 0
13 7 20 20 20 18 0 20 -7 20 -69 0 -39 5 -73 10 -76 6 -4 10 22 10 69 l0 76
34 0 c45 0 55 -18 25 -41 l-24 -18 25 -26 c18 -19 32 -25 52 -23 24 4 28 1 28
-19 0 -13 5 -23 10 -23 6 0 10 32 10 75 0 68 2 75 20 75 18 0 20 -7 20 -69 0
-39 5 -73 10 -76 6 -4 10 22 10 69 l0 76 35 0 c30 0 35 -3 35 -25 0 -13 -7
-28 -17 -33 -19 -11 -11 -42 12 -42 11 0 15 12 15 50 0 49 1 50 30 50 l30 0 0
-75 c0 -43 4 -75 10 -75 6 0 10 32 10 75 0 61 3 75 16 75 8 0 12 5 9 10 -3 6
-46 10 -94 10 l-88 0 -24 38 c-17 26 -32 38 -53 40 -20 3 -27 0 -24 -10z"/>
<path d="M820 5360 c0 -5 9 -10 20 -10 30 0 38 -31 12 -48 -20 -13 -20 -16 -8
-41 19 -36 62 -75 70 -63 3 6 -7 20 -24 32 -38 27 -31 40 21 40 38 0 39 -1 39
-35 0 -19 5 -35 10 -35 6 0 10 32 10 75 l0 75 60 0 c69 0 80 -14 19 -24 l-41
-7 6 -47 c4 -26 9 -55 12 -65 9 -30 94 -64 94 -37 0 6 -9 10 -21 10 -49 0 -76
39 -47 68 14 14 58 16 58 2 0 -5 -8 -13 -17 -19 -21 -11 -11 -26 12 -17 11 4
15 15 13 33 -3 25 -7 28 -43 29 -59 2 -62 3 -41 19 11 8 32 15 48 15 21 0 28
5 28 20 0 18 7 20 85 20 69 0 85 -3 85 -15 0 -11 -11 -15 -40 -15 -43 0 -54
-14 -19 -25 25 -8 21 -38 -6 -44 -13 -2 -29 8 -47 30 -15 18 -28 28 -28 22 0
-6 12 -25 26 -42 40 -48 101 -36 87 17 -4 16 -1 22 11 22 12 0 16 -10 16 -44
0 -25 5 -48 10 -51 6 -4 10 22 10 69 0 61 3 76 15 76 8 0 15 5 15 10 0 6 -92
10 -255 10 -163 0 -255 -4 -255 -10z"/>
<path d="M1987 5363 c-15 -14 -6 -21 26 -19 38 1 46 -27 10 -32 -34 -5 -29
-31 5 -29 21 2 27 -2 27 -18 0 -33 -48 -32 -74 1 -11 15 -21 22 -21 17 0 -6
10 -22 21 -37 26 -33 77 -33 94 -1 14 29 45 21 39 -10 -2 -13 0 -27 6 -30 6
-4 10 21 10 69 0 74 1 76 25 76 24 0 25 -2 25 -75 0 -43 4 -75 10 -75 6 0 10
32 10 75 l0 75 90 0 c73 0 90 -3 90 -15 0 -11 -12 -15 -47 -15 l-48 0 24 -19
c16 -12 22 -24 18 -35 -10 -27 -46 -19 -65 14 -20 34 -39 41 -21 8 21 -41 42
-58 70 -58 30 0 44 24 33 55 -5 13 -2 16 12 13 15 -2 20 -15 25 -53 5 -45 6
-42 7 28 2 61 5 77 17 77 8 0 15 5 15 10 0 6 -63 10 -170 10 -153 0 -206 -8
-150 -23 35 -9 20 -72 -16 -65 -13 2 -20 13 -22 33 -2 17 -8 36 -14 43 -11 13
-50 16 -61 5z"/>
<path d="M2535 5360 c3 -5 29 -10 56 -10 36 0 49 -4 46 -12 -2 -7 -15 -12 -29
-10 -27 3 -58 -20 -58 -43 0 -26 32 -47 61 -41 24 5 28 2 32 -22 3 -22 4 -21
6 9 1 43 34 80 53 61 10 -10 10 -17 0 -32 -15 -24 -15 -30 -2 -30 16 0 29 43
18 63 -5 10 -20 17 -38 17 -23 0 -30 4 -30 20 0 18 7 20 55 20 l55 0 0 -75 c0
-43 4 -75 10 -75 6 0 10 32 10 75 0 43 4 75 10 75 6 0 10 5 10 10 0 6 -52 10
-136 10 -87 0 -133 -4 -129 -10z"/>
<path d="M658 5089 c-10 -5 -18 -19 -18 -29 0 -19 -8 -20 -186 -20 -121 0
-183 -3 -179 -10 3 -5 22 -10 41 -10 19 0 34 -5 34 -11 0 -5 -5 -7 -10 -4 -20
12 -50 -6 -50 -30 0 -24 30 -42 50 -30 5 3 10 -3 10 -15 0 -12 4 -19 10 -15 5
3 7 12 3 20 -6 18 14 45 34 45 10 0 11 -4 3 -19 -12 -24 -13 -31 -1 -31 16 0
23 40 10 56 -7 8 -20 12 -30 9 -13 -4 -19 -1 -19 9 0 12 10 16 40 16 35 0 40
-3 40 -23 0 -27 17 -47 41 -47 18 0 29 19 29 51 0 16 7 19 48 18 47 -1 47 -1
14 -10 -44 -13 -40 -43 6 -47 34 -4 42 -16 16 -26 -9 -4 -27 1 -40 9 -28 18
-31 14 -8 -9 20 -20 63 -21 70 -1 9 23 -13 43 -41 37 -15 -2 -25 0 -25 7 0 6
14 11 30 11 20 0 30 5 30 15 0 8 9 15 19 15 17 0 19 -6 16 -47 -2 -26 -1 -52
3 -57 4 -6 9 16 12 49 l5 59 55 -3 c30 -1 57 -5 59 -7 9 -9 -9 -16 -46 -17
-32 -2 -39 -6 -41 -25 -4 -25 25 -65 40 -56 4 3 -1 13 -13 23 -24 19 -21 51 5
51 10 0 13 -6 10 -15 -4 -8 -2 -15 4 -15 5 0 12 7 16 15 11 28 25 15 29 -27 3
-37 4 -35 5 15 l2 57 50 0 c38 0 50 -4 50 -15 0 -11 -11 -15 -36 -15 -28 0
-35 -4 -32 -17 4 -22 28 -29 28 -9 0 9 8 16 19 16 15 0 21 -8 24 -37 3 -28 4
-23 5 20 2 50 5 57 22 57 17 0 20 -7 22 -57 l2 -58 3 55 c3 30 10 58 16 62 9
6 9 10 1 16 -6 4 -16 17 -23 30 -16 30 -61 31 -61 0 0 -21 0 -21 14 -3 12 16
16 17 30 6 9 -7 16 -17 16 -22 0 -5 -65 -9 -145 -9 -80 0 -145 4 -145 8 0 32
54 41 102 16 18 -9 27 -11 23 -4 -8 13 -67 40 -87 40 -7 0 -21 -5 -30 -11z"/>
<path d="M1222 5088 c-7 -7 -12 -20 -12 -30 0 -16 -10 -18 -81 -18 l-80 0 26
-34 26 -34 -23 -4 c-22 -4 -22 -5 -3 -13 11 -4 30 -17 43 -28 12 -11 22 -16
22 -10 0 6 -7 16 -15 23 -14 12 -14 15 0 30 21 23 21 47 0 30 -11 -9 -19 -10
-27 -2 -13 13 -1 35 15 25 7 -4 20 -6 30 -5 14 3 17 -5 17 -52 0 -31 5 -56 10
-56 6 0 10 25 10 55 0 42 3 55 15 55 12 0 15 -13 15 -56 0 -34 4 -53 10 -49 6
3 10 28 10 56 l0 49 48 -1 c43 -1 44 -2 18 -9 -36 -11 -48 -28 -34 -53 7 -13
17 -18 33 -14 18 3 25 -1 28 -17 4 -18 4 -17 6 5 2 40 41 69 41 31 0 -11 9
-27 20 -37 11 -10 20 -13 20 -8 0 6 -7 16 -15 23 -21 18 -19 38 6 45 27 9 37
-2 42 -45 3 -24 4 -17 5 23 1 31 7 57 12 57 6 0 10 5 10 10 0 6 -48 10 -125
10 -103 0 -125 3 -125 15 0 34 84 46 150 21 68 -26 74 -26 25 -1 -55 27 -151
35 -173 13z"/>
<path d="M3198 5089 c-10 -5 -18 -19 -18 -29 0 -18 -7 -20 -96 -20 -61 0 -93
-4 -89 -10 3 -5 15 -10 26 -10 23 0 26 -18 4 -26 -8 -4 -15 -12 -15 -19 0 -17
-31 -28 -44 -15 -7 7 -4 15 10 25 18 14 18 14 -9 15 -19 0 -27 4 -24 13 2 6
11 11 20 11 9 -1 14 2 11 7 -3 5 -14 9 -25 9 -20 0 -27 -34 -9 -45 6 -3 10
-15 10 -25 0 -23 20 -29 83 -26 40 2 47 -1 47 -17 0 -10 5 -15 10 -12 6 3 10
28 10 56 0 37 4 49 15 49 12 0 15 -13 15 -55 0 -30 5 -55 10 -55 6 0 10 25 10
55 0 42 3 55 15 55 12 0 15 -13 15 -56 0 -34 4 -53 10 -49 6 3 10 28 10 56 l0
49 45 0 c25 0 45 -4 45 -10 0 -5 -13 -10 -29 -10 -17 0 -31 -6 -35 -16 -8 -20
22 -77 35 -68 6 4 4 13 -7 25 -21 23 -12 49 17 49 18 0 20 -2 8 -16 -10 -13
-10 -17 2 -24 8 -6 15 -6 17 0 2 6 14 10 27 10 18 0 25 -6 28 -27 2 -16 5 -2
6 30 l1 57 45 0 c25 0 45 -4 45 -8 0 -5 -10 -8 -21 -8 -30 1 -47 -27 -29 -49
7 -9 22 -14 32 -12 13 4 18 0 18 -14 0 -10 5 -19 10 -19 6 0 10 14 10 30 0 18
6 33 15 37 23 8 28 -2 15 -26 -6 -13 -7 -21 -1 -21 16 0 23 40 10 56 -7 8 -18
13 -26 10 -7 -3 -13 1 -13 9 0 10 10 15 30 15 17 0 30 5 30 10 0 6 -64 10
-171 10 -157 0 -170 1 -167 18 5 24 90 29 125 7 13 -9 27 -14 30 -11 9 9 -79
46 -107 45 -14 0 -33 -4 -42 -10z"/>
<path d="M3851 5071 c-6 -10 -7 -21 -4 -25 3 -3 -49 -6 -116 -6 -79 0 -120 -4
-116 -10 3 -5 22 -10 41 -10 39 0 45 -16 12 -30 -22 -8 -19 -12 12 -14 21 -1
24 -32 4 -40 -11 -4 -26 2 -42 16 l-25 23 18 -28 c13 -21 25 -27 44 -25 24 3
26 6 24 51 l-3 47 50 0 c28 0 50 -4 50 -10 0 -5 -13 -7 -29 -4 -32 7 -51 -11
-31 -29 10 -9 14 -9 17 1 5 13 43 17 43 4 0 -5 -11 -14 -25 -20 -28 -13 -34
-42 -9 -42 8 0 13 4 10 9 -3 5 1 14 9 21 13 11 15 8 15 -14 0 -16 4 -25 10
-21 6 3 8 28 6 56 -4 43 -2 49 15 49 16 0 19 -8 19 -56 0 -37 4 -53 11 -49 7
5 8 25 4 56 l-7 49 51 0 c28 0 51 -4 51 -10 0 -5 -13 -10 -29 -10 -17 0 -31
-6 -35 -16 -8 -20 22 -77 35 -68 7 4 3 15 -10 28 -23 24 -13 46 21 46 14 0 18
-8 18 -40 0 -22 5 -40 10 -40 6 0 10 22 10 49 0 27 3 56 6 65 5 14 -4 16 -61
16 -58 0 -66 2 -63 18 4 23 43 27 76 7 l27 -16 -24 20 c-29 26 -77 27 -90 2z"/>
<path d="M1785 5030 c3 -5 31 -10 61 -10 30 0 54 -4 54 -10 0 -5 -14 -10 -32
-10 -30 0 -31 0 -13 -20 16 -18 17 -20 1 -26 -11 -4 -27 2 -44 17 l-26 24 15
-24 c21 -33 42 -46 64 -37 12 4 15 13 11 31 -5 18 -2 25 8 25 10 0 16 -14 19
-42 3 -37 4 -35 5 15 2 49 5 57 22 57 16 0 20 -8 23 -57 l3 -58 2 58 c2 54 3
57 27 57 18 0 25 -5 25 -19 0 -11 -5 -21 -12 -23 -6 -2 -8 -10 -4 -16 14 -23
26 -12 26 23 0 30 3 35 25 35 22 0 24 -4 28 -57 l3 -58 2 58 2 57 35 0 c38 0
48 -19 15 -27 -11 -3 -20 -10 -20 -15 0 -15 60 -71 68 -64 4 4 -4 16 -18 26
-20 15 -23 21 -12 31 6 7 12 21 12 31 0 11 7 18 20 18 14 0 20 -7 20 -23 0
-27 17 -47 41 -47 18 0 29 19 29 51 0 10 5 19 10 19 6 0 10 -22 10 -49 0 -28
5 -53 10 -56 6 -4 10 14 10 47 0 30 5 59 12 66 9 9 -50 12 -266 12 -182 0
-275 -3 -271 -10z"/>
<path d="M1818 4809 c-10 -5 -18 -19 -18 -29 0 -19 -8 -20 -102 -21 -57 0 -97
-3 -90 -6 6 -2 12 -10 12 -16 0 -6 8 -19 17 -30 15 -16 15 -18 3 -16 -9 2 -16
0 -16 -6 0 -14 52 -56 59 -48 3 3 -3 13 -14 22 -19 15 -20 18 -5 30 9 7 16 25
16 38 0 15 5 23 13 21 7 -3 14 -30 18 -64 l6 -59 1 63 c2 55 4 63 20 60 13 -2
18 -17 23 -63 l6 -60 1 63 c2 55 4 63 20 60 14 -3 16 -12 14 -55 -2 -29 1 -54
7 -58 7 -4 11 14 11 55 l0 61 45 -3 c52 -3 63 -21 19 -28 -21 -4 -30 -12 -32
-28 -4 -24 13 -52 31 -52 5 0 2 9 -8 20 -22 25 -13 52 17 48 18 -2 24 -11 29
-43 5 -35 6 -32 8 23 1 48 4 62 16 62 8 0 15 -9 15 -21 0 -35 19 -59 46 -59
19 0 25 -4 21 -15 -4 -8 -2 -17 3 -20 6 -4 10 18 10 54 0 46 3 61 14 61 9 0
16 -12 18 -31 6 -64 68 -67 68 -3 0 60 24 35 31 -32 l6 -59 1 63 c1 42 6 62
15 63 6 0 2 4 -10 9 -27 11 -30 35 -5 49 15 9 14 10 -7 11 -20 0 -23 -4 -19
-30 l5 -30 -174 0 c-95 0 -173 4 -173 8 0 32 53 41 89 15 14 -9 21 -11 16 -4
-6 11 -66 42 -77 41 -2 0 -11 -5 -20 -11z"/>
<path d="M2391 4788 c1 -17 2 -19 6 -5 4 14 43 26 43 13 0 -2 3 -11 6 -20 5
-14 -6 -16 -82 -18 -83 -1 -85 -2 -30 -7 64 -6 92 -31 35 -31 -31 0 -32 0 -14
-20 16 -18 17 -20 1 -26 -11 -4 -27 2 -44 17 l-26 24 15 -24 c9 -14 23 -29 32
-35 21 -13 49 10 42 35 -4 13 -1 19 9 19 12 0 16 -11 18 -42 1 -37 2 -34 7 17
5 46 10 61 24 63 15 3 17 -5 19 -60 l1 -63 6 60 6 60 48 3 c28 2 47 -1 47 -7
0 -6 -11 -11 -24 -11 -55 0 -58 -62 -2 -68 15 -2 26 -10 26 -18 0 -8 5 -12 10
-9 6 3 10 31 10 61 l0 54 45 0 c38 0 45 -3 45 -20 0 -16 -7 -20 -35 -20 -37 0
-44 -10 -20 -30 12 -10 15 -10 15 4 0 9 8 16 20 16 16 0 20 -7 20 -37 0 -20 3
-33 7 -29 4 4 6 27 4 52 -1 25 3 52 9 60 11 12 -4 14 -107 14 -118 0 -120 0
-131 25 -16 34 -63 36 -61 3z"/>
<path d="M2067 4403 l-37 -37 -30 17 c-16 10 -53 21 -81 24 l-51 6 21 -34 21
-34 -53 -6 -52 -6 52 -1 c60 -2 60 -1 65 -114 4 -77 22 -103 92 -137 44 -22
34 -26 -27 -12 -54 13 -81 42 -107 114 -29 80 -100 178 -100 137 0 -5 9 -14
20 -20 28 -15 25 -26 -12 -39 -18 -6 -43 -19 -56 -27 l-25 -16 42 -22 c25 -12
64 -48 95 -86 34 -43 64 -69 86 -77 19 -7 30 -12 23 -12 -7 -1 -29 -16 -49
-33 -37 -33 -94 -140 -94 -175 1 -10 9 6 20 36 11 30 22 56 24 59 3 2 11 -11
19 -30 15 -36 66 -84 105 -99 l23 -9 -28 -25 -28 -26 36 23 c55 35 64 54 39
85 -27 35 -25 75 5 111 21 25 23 35 16 55 -19 50 52 92 91 54 7 -8 36 -19 64
-26 69 -17 124 -62 125 -104 1 -20 3 -25 6 -13 4 15 7 16 14 5 5 -8 9 -9 9 -4
0 23 -43 77 -77 97 -22 14 -31 23 -22 26 38 10 64 31 108 87 26 33 64 69 84
80 20 11 37 23 37 26 0 9 -70 42 -76 36 -3 -2 9 -10 26 -17 35 -14 38 -26 10
-35 -10 -3 -49 -39 -85 -80 -72 -80 -108 -99 -165 -86 -38 8 -32 12 37 26 42
8 74 47 103 125 15 39 31 65 44 70 13 6 16 9 6 10 -10 0 -6 9 14 26 15 14 25
28 22 31 -4 4 -33 9 -66 11 -33 2 -60 8 -60 11 0 4 7 16 15 27 8 10 15 22 15
27 0 14 -65 6 -105 -12 l-40 -18 -35 33 -36 34 -37 -37z m91 -39 c44 -60 58
-104 49 -160 -6 -38 -39 -89 -66 -103 -16 -9 -17 -5 -13 43 3 40 -1 65 -17
101 -27 61 -28 175 -2 175 4 0 26 -25 49 -56z m-83 -2 c-4 -25 -1 -53 10 -83
36 -96 39 -115 26 -158 -6 -23 -16 -41 -21 -41 -17 0 -68 51 -84 84 -20 43
-20 86 -1 133 16 37 61 103 71 103 3 0 3 -17 -1 -38z"/>
<path d="M3043 4066 c20 -15 22 -33 5 -38 -13 -5 18 -58 35 -58 5 0 3 8 -6 18
-20 22 -14 32 13 25 10 -3 21 -15 23 -27 2 -11 5 0 6 27 l1 47 43 -1 c34 -1
37 -2 17 -8 -21 -6 -25 -13 -22 -42 2 -32 31 -69 53 -69 19 0 8 19 -13 22 -27
4 -36 35 -13 44 21 9 33 -5 15 -16 -12 -8 -12 -10 3 -10 12 0 17 6 15 18 -2
11 -13 17 -31 17 -32 -1 -31 18 1 23 12 2 22 8 22 13 0 5 9 9 20 9 11 0 20 -7
20 -15 0 -8 -5 -15 -10 -15 -6 0 -4 -13 5 -30 9 -16 21 -30 27 -30 6 0 4 8 -5
18 -10 10 -14 22 -10 25 11 12 23 7 23 -9 0 -13 3 -14 14 -5 12 10 15 8 19
-11 2 -13 5 -2 6 25 1 34 5 47 15 47 11 0 16 -14 19 -47 l3 -48 2 48 c2 43 4
47 27 47 14 0 25 -4 25 -10 0 -5 -4 -10 -10 -10 -18 0 -10 -26 15 -50 14 -13
25 -20 25 -15 0 4 -7 13 -15 19 -13 9 -13 15 -3 38 7 16 17 28 21 28 5 0 5 5
2 10 -4 6 -86 10 -213 10 -174 -1 -204 -3 -189 -14z"/>
<path d="M2205 3783 c-43 -23 -48 -36 -20 -51 14 -7 29 -21 35 -32 6 -12 10
-189 10 -495 0 -377 3 -476 13 -473 9 4 13 104 15 449 2 244 0 464 -3 488 -5
32 -16 53 -37 73 -17 15 -26 28 -21 28 5 0 18 7 29 15 25 19 17 18 -21 -2z"/>
<path d="M3112 3348 c-13 -16 -15 -30 -13 -90 1 -61 21 -63 21 -3 l0 45 40 0
c22 0 40 -4 40 -10 0 -5 -13 -10 -30 -10 -23 0 -30 -4 -30 -20 0 -21 27 -40
47 -33 6 2 13 -4 16 -14 3 -10 5 6 6 35 1 39 5 52 16 52 8 0 15 -7 15 -15 0
-8 5 -15 11 -15 5 0 8 4 4 9 -3 5 -1 12 4 15 5 4 12 2 16 -4 8 -13 -16 -38
-33 -32 -23 7 -12 -14 18 -36 29 -22 42 -18 18 6 -9 9 -9 15 0 24 7 7 12 20
12 30 0 10 5 18 10 18 6 0 11 -21 12 -47 l1 -48 6 44 c8 62 31 67 31 7 0 -25
5 -46 10 -46 6 0 10 20 10 45 l0 45 40 0 c22 0 40 -4 40 -10 0 -5 -9 -10 -19
-10 -11 0 -21 -6 -24 -12 -6 -19 11 -48 28 -48 8 0 15 -7 15 -15 0 -8 -7 -15
-16 -15 -8 0 -12 5 -9 10 3 6 -1 10 -9 10 -9 0 -16 7 -16 16 0 8 -5 12 -10 9
-6 -4 -3 -15 7 -30 13 -17 26 -24 48 -22 25 2 30 6 31 30 1 26 -1 27 -28 21
-25 -5 -29 -3 -26 13 2 10 13 19 26 21 12 2 22 9 22 17 0 7 6 16 13 18 6 3
-19 6 -56 6 -50 1 -68 4 -65 14 6 17 56 21 74 6 8 -6 17 -10 20 -7 9 9 -67 40
-83 34 -8 -3 -17 -15 -20 -26 -5 -19 -14 -20 -124 -20 -75 0 -119 4 -119 10 0
18 31 24 61 13 38 -15 37 -8 -1 12 -35 18 -45 19 -58 3z"/>
<path d="M256 2884 c13 -11 15 -17 7 -20 -7 -3 -13 -12 -13 -19 0 -19 37 -61
46 -52 4 4 -1 14 -12 21 -10 8 -16 17 -12 21 11 11 46 -5 51 -23 3 -9 5 4 6
31 1 35 5 47 16 47 9 0 15 -9 15 -24 0 -26 23 -51 39 -42 5 4 12 -2 14 -11 3
-10 5 3 6 30 1 40 4 47 21 47 13 0 20 -7 20 -20 0 -11 -5 -20 -12 -20 -6 0 -8
-3 -4 -7 4 -5 20 -8 34 -8 19 0 28 -7 33 -25 5 -18 7 -11 8 28 1 39 5 52 16
52 11 0 15 -13 17 -52 l2 -53 3 50 c3 27 10 53 16 57 7 4 -66 8 -162 8 -160 0
-173 -1 -155 -16z"/>
<path d="M3140 2830 c0 -7 8 -9 20 -5 25 8 27 -10 3 -24 -17 -10 -17 -10 -1
-11 23 0 33 -19 13 -26 -9 -4 -25 2 -37 12 -21 19 -21 19 -7 -3 7 -13 19 -25
26 -27 16 -7 43 3 43 15 0 17 20 9 22 -8 0 -10 4 2 7 26 8 62 31 67 31 7 0
-25 5 -46 10 -46 6 0 10 20 10 45 0 45 0 45 35 45 19 0 35 -4 35 -10 0 -5 -9
-10 -20 -10 -38 0 -37 -56 1 -68 9 -3 7 3 -6 17 -16 19 -17 24 -5 31 21 14 30
12 24 -4 -6 -17 12 -31 21 -16 11 18 35 11 35 -10 0 -11 5 -20 10 -20 6 0 10
20 10 45 0 25 5 45 10 45 6 0 10 -20 10 -45 0 -61 17 -57 22 5 l3 50 -135 0
c-79 0 -129 -4 -122 -9 15 -9 12 -47 -3 -44 -6 1 -12 12 -15 25 -6 24 -50 40
-50 18z"/>
<path d="M2540 2674 c-22 -56 -22 -84 -5 -159 16 -65 16 -83 6 -128 -7 -29
-14 -97 -16 -152 l-4 -100 9 91 c11 123 20 174 31 174 5 0 9 -7 9 -15 0 -9 15
-64 34 -123 19 -59 38 -125 41 -147 14 -83 79 -147 260 -256 l90 -54 -65 -6
c-64 -6 -63 -6 20 -6 64 1 101 -4 150 -21 l65 -23 50 -102 c34 -68 54 -124 61
-170 l10 -69 -40 -26 c-23 -14 -81 -47 -131 -74 -49 -26 -87 -48 -82 -48 13 0
143 68 201 105 l55 35 21 -30 c22 -31 55 -40 62 -18 3 7 -2 42 -9 78 -7 35
-12 71 -11 79 2 8 35 -30 74 -85 62 -86 75 -99 100 -99 38 0 44 33 14 76 -12
16 -20 32 -17 35 2 2 12 -8 22 -22 32 -50 97 -114 115 -114 10 0 23 7 31 16
17 21 -3 58 -86 154 -59 68 -74 90 -60 90 2 0 36 -39 75 -86 61 -72 76 -85 98
-82 21 2 28 9 30 30 3 21 -13 47 -66 115 -86 109 -119 160 -127 196 -9 33 -8
33 51 2 51 -27 122 -33 142 -13 27 27 13 48 -50 78 -35 17 -70 30 -79 30 -9 0
-23 7 -30 17 -17 19 -71 43 -96 42 -10 0 -2 -5 17 -11 19 -5 49 -20 65 -32 17
-12 63 -34 103 -50 39 -15 72 -32 72 -36 0 -29 -15 -40 -54 -40 -39 0 -63 9
-113 40 -17 11 -25 12 -34 3 -17 -17 5 -73 57 -143 24 -33 44 -62 44 -65 0 -2
-11 -12 -26 -21 -25 -17 -26 -16 -54 17 -25 30 -29 32 -35 16 -5 -12 3 -31 25
-59 32 -39 32 -42 15 -54 -20 -15 -45 -18 -45 -6 0 4 -19 27 -41 52 l-41 45
33 -60 c18 -33 41 -72 51 -87 26 -38 24 -68 -5 -68 -18 0 -39 23 -97 105 -40
58 -77 105 -81 105 -5 0 -9 -16 -9 -36 0 -33 -2 -35 -27 -32 -24 3 -29 9 -34
43 -3 22 -27 80 -53 130 -39 73 -47 95 -42 125 4 29 3 32 -6 15 -6 -11 -12
-21 -13 -22 -1 -2 -37 9 -80 24 -131 44 -302 149 -381 235 -32 35 -43 56 -48
94 -4 27 -18 81 -31 119 -39 118 -61 196 -80 284 -18 79 -18 86 -2 129 17 50
15 73 -3 26z"/>
<path d="M2230 2398 c0 -139 0 -387 0 -551 l1 -299 -73 2 c-141 4 -298 0 -298
-7 1 -5 46 -41 100 -82 55 -41 98 -76 96 -78 -4 -4 -172 55 -209 74 -15 7 -65
40 -110 72 -45 31 -114 69 -153 84 -70 27 -207 58 -247 56 -12 -1 14 -8 58
-16 141 -25 249 -68 346 -139 61 -43 119 -74 183 -98 52 -20 97 -36 100 -36 3
0 17 -5 33 -12 39 -15 53 -18 53 -8 0 5 27 30 60 55 l60 46 0 -38 c0 -54 -23
-83 -64 -83 -28 0 -34 -4 -39 -27 -3 -16 -12 -37 -20 -47 -14 -19 -15 -19 -31
12 -20 40 -36 41 -36 4 0 -33 27 -62 57 -62 29 0 56 34 51 64 -4 21 0 25 31
30 19 3 47 17 61 31 30 32 216 136 321 181 42 18 123 44 180 57 57 14 122 30
144 36 l40 10 -45 -5 c-74 -10 -263 -61 -326 -89 -32 -14 -107 -53 -165 -86
-58 -32 -111 -59 -117 -59 -8 0 -12 18 -12 49 0 44 3 51 35 72 44 30 44 39 0
39 l-35 0 0 550 c0 482 -2 550 -15 550 -13 0 -15 -35 -15 -252z m0 -892 c0
-27 -7 -39 -35 -60 -19 -14 -50 -37 -68 -51 l-33 -24 -104 80 c-57 44 -106 82
-109 84 -2 3 75 5 172 5 l177 0 0 -34z"/>
<path d="M3155 2630 c-4 -6 6 -10 22 -10 25 -1 26 -2 11 -14 -18 -14 -25 -32
-9 -21 12 7 24 -12 16 -26 -5 -6 -16 -4 -33 7 l-27 17 19 -21 c22 -26 44 -28
52 -7 9 23 32 18 37 -7 2 -13 5 -2 6 25 l1 47 40 0 c22 0 40 -4 40 -10 0 -5
-11 -10 -24 -10 -28 0 -42 -15 -25 -26 6 -3 15 0 20 7 11 18 26 3 32 -31 2
-14 5 -5 6 23 1 34 5 47 15 47 11 0 16 -14 19 -47 l3 -48 2 46 c2 46 3 47 38
51 19 2 37 0 40 -4 3 -4 -6 -8 -20 -8 -23 0 -25 -4 -24 -36 1 -33 34 -74 59
-74 19 0 8 19 -13 22 -27 4 -36 35 -13 44 21 9 33 -5 15 -16 -12 -8 -12 -10 3
-10 12 0 17 6 15 18 -2 11 -13 17 -31 17 -32 -1 -31 18 1 23 12 2 22 8 22 13
0 5 19 9 43 8 32 -1 36 -3 18 -8 -38 -10 -49 -36 -26 -60 10 -12 20 -19 23
-17 2 3 -3 12 -12 21 -19 19 -13 35 14 35 14 0 20 -9 23 -32 3 -29 4 -28 5 9
1 23 5 48 8 57 5 14 -13 16 -170 16 -111 0 -176 -4 -176 -10 0 -5 5 -10 11
-10 6 0 9 -8 7 -17 -2 -10 -10 -18 -18 -18 -8 0 -14 6 -12 14 6 29 -38 55 -53
31z"/>
<path d="M183 2618 c-16 -20 -23 -48 -13 -48 5 0 11 -21 13 -47 l3 -48 2 48
c2 34 6 47 17 47 9 0 15 -9 15 -23 0 -27 17 -47 35 -40 7 2 15 -4 18 -14 3
-10 5 3 6 30 1 40 4 47 21 47 13 0 20 -7 20 -20 0 -11 -5 -20 -11 -20 -5 0 -7
-4 -4 -10 12 -20 25 -9 25 20 0 23 5 30 19 30 16 0 21 -8 24 -47 l3 -48 2 48
2 47 50 0 c28 0 50 -4 50 -10 0 -11 -12 -13 -47 -11 -11 1 -24 -3 -28 -9 -9
-14 14 -60 29 -60 6 0 5 5 -2 12 -15 15 -16 48 -2 48 6 0 10 -7 10 -17 0 -15
2 -15 19 1 19 17 20 17 24 -16 3 -26 4 -24 5 15 2 34 6 47 17 47 11 0 15 -13
17 -47 l1 -48 4 45 c3 24 10 48 16 52 7 4 -70 8 -170 8 -175 0 -216 7 -175 29
13 7 27 6 48 -5 l29 -14 -24 20 c-26 23 -54 26 -68 8z"/>
<path d="M1622 2393 c-5 -16 -27 -70 -47 -122 -20 -51 -40 -117 -46 -145 -5
-28 -17 -62 -27 -76 -50 -68 -222 -181 -324 -215 -24 -7 -61 -20 -83 -28 -22
-8 -52 -17 -67 -21 -25 -6 -28 -4 -29 21 -1 19 -3 22 -5 8 -2 -11 -9 -45 -15
-75 -6 -30 -24 -80 -41 -110 -17 -30 -39 -79 -49 -109 -18 -51 -52 -101 -70
-101 -16 0 -17 32 -3 74 17 48 16 70 -2 58 -5 -4 -34 -42 -64 -85 -41 -61 -58
-77 -74 -75 -34 5 -26 29 50 148 13 19 10 18 -10 -5 -15 -16 -38 -51 -51 -76
-28 -53 -47 -72 -72 -67 -31 6 -25 32 22 112 25 42 45 81 45 86 0 17 -14 11
-31 -13 -77 -108 -90 -127 -85 -127 3 0 19 21 36 46 42 61 49 50 10 -16 -17
-29 -30 -62 -28 -74 4 -25 42 -34 64 -15 13 10 17 10 23 0 19 -30 56 -6 109
72 30 43 56 76 58 74 2 -2 -3 -23 -11 -46 -11 -31 -12 -48 -5 -62 14 -25 26
-24 54 6 21 23 25 24 37 9 25 -30 235 -124 277 -124 9 0 -16 12 -56 25 -83 29
-203 87 -219 107 -15 17 11 100 55 179 17 30 34 71 38 92 7 41 8 42 99 72 131
44 136 44 258 29 63 -8 151 -21 194 -29 116 -22 109 -26 121 63 29 203 17 562
-18 562 -4 0 -12 -12 -18 -27z m36 -93 c10 -74 0 -422 -14 -484 -8 -32 8 -31
-164 -1 -47 9 -118 18 -157 22 -40 3 -73 9 -73 12 0 3 18 14 39 24 58 26 204
140 223 174 9 16 23 56 31 88 22 88 91 265 99 251 3 -6 11 -45 16 -86z"/>
<path d="M383 2224 c-3 -8 -3 -18 1 -21 3 -4 6 -1 6 5 0 7 5 12 11 12 7 0 9
-12 5 -35 -7 -33 5 -48 19 -25 11 18 34 11 38 -12 2 -13 5 -2 6 25 l1 47 40 0
c22 0 40 -4 40 -10 0 -5 -6 -7 -13 -4 -7 2 -21 -2 -32 -10 -16 -12 -17 -16 -6
-30 7 -9 22 -16 32 -16 11 0 19 -4 19 -10 0 -5 5 -10 10 -10 6 0 8 16 5 40 -4
31 -1 42 11 47 21 8 44 -15 25 -26 -17 -11 -6 -48 20 -61 11 -6 19 -7 19 -1 0
5 -7 11 -15 15 -22 8 -18 26 5 26 12 0 24 -10 30 -22 7 -19 9 -14 9 25 1 34 5
47 15 47 11 0 16 -14 19 -47 l3 -48 2 48 c2 40 5 47 22 47 13 0 20 -7 20 -20
0 -11 -5 -20 -11 -20 -5 0 -7 -4 -4 -10 12 -20 25 -9 25 20 0 23 5 30 19 30
16 0 21 -8 24 -47 l3 -48 2 48 c2 43 4 47 27 47 16 0 25 -6 25 -15 0 -8 -4
-15 -10 -15 -16 0 -11 -26 8 -43 26 -23 39 -21 18 2 -15 16 -16 23 -5 43 6 13
17 26 23 30 6 4 -97 7 -229 7 -132 -1 -232 -3 -222 -6 20 -5 23 -43 3 -43 -8
0 -17 11 -20 24 -7 29 -34 42 -43 20z"/>
<path d="M3483 2174 c-7 -3 -13 -14 -13 -25 0 -18 -8 -19 -107 -19 -91 0 -104
-2 -89 -13 16 -12 17 -16 5 -35 -11 -18 -11 -24 5 -41 11 -12 24 -21 29 -21 6
0 2 9 -8 20 -25 27 -14 34 26 17 19 -7 39 -12 46 -10 6 2 13 -4 16 -14 3 -10
5 6 6 35 1 39 5 52 16 52 11 0 15 -13 17 -52 l1 -53 6 49 c8 70 31 73 33 4 l1
-53 4 45 c6 62 19 72 38 27 8 -20 20 -38 25 -38 6 -1 15 -2 20 -3 6 0 15 -8
20 -16 7 -11 10 0 10 38 0 38 4 52 14 52 16 0 26 -52 14 -73 -12 -22 28 -54
50 -40 13 8 16 22 14 62 -3 41 -1 51 12 51 12 0 16 -12 18 -52 l1 -53 6 50 c6
49 6 50 44 53 28 2 37 0 37 -12 0 -10 -9 -16 -24 -16 -28 0 -42 -15 -24 -26 6
-4 14 -2 16 4 8 25 31 11 35 -20 3 -27 4 -24 5 13 1 25 7 50 14 57 9 9 -18 12
-125 12 -131 0 -137 -1 -126 -19 16 -25 4 -51 -23 -51 -21 1 -22 2 -5 14 22
17 22 28 1 24 -10 -2 -19 3 -22 11 -3 10 0 12 12 8 11 -4 15 -3 10 4 -3 6 -14
9 -24 6 -23 -6 -45 7 -36 22 9 14 58 14 74 1 8 -6 8 -5 0 4 -15 17 -57 27 -75
20z"/>
<path d="M874 1877 c-4 -11 -13 -12 -43 -4 -46 13 -81 4 -120 -28 -80 -68 -53
-196 48 -226 106 -32 206 84 157 182 -15 29 -15 33 1 44 9 7 14 19 10 29 -8
19 -46 21 -53 3z m-13 -30 c61 -41 76 -105 39 -165 -41 -68 -133 -78 -189 -21
-57 56 -47 148 21 189 43 26 87 25 129 -3z"/>
<path d="M3317 1825 c-22 -13 -31 -14 -43 -5 -17 15 -44 6 -44 -13 0 -8 6 -20
13 -26 10 -7 12 -27 9 -66 -4 -53 -3 -56 36 -95 89 -89 222 -33 222 94 0 38
-6 52 -33 82 -28 31 -41 37 -83 40 -32 3 -58 -1 -77 -11z m117 -10 c113 -54
71 -225 -56 -225 -104 0 -156 132 -80 202 44 41 83 48 136 23z"/>
<path d="M3335 1755 c-14 -13 -25 -35 -25 -48 0 -31 39 -67 73 -67 63 0 90 80
41 119 -35 27 -59 26 -89 -4z"/>
<path d="M3467 1153 c-4 -3 -7 -15 -7 -25 0 -17 -12 -18 -152 -19 -94 -1 -139
-4 -118 -9 21 -4 26 -8 14 -9 -32 -2 -50 -27 -34 -46 7 -8 21 -15 30 -15 10 0
21 -6 23 -12 3 -7 6 -1 6 13 1 15 8 30 17 33 13 5 15 1 9 -21 -5 -21 -4 -25 5
-17 17 17 8 49 -13 48 -9 -1 -17 4 -17 12 0 9 11 14 29 14 24 0 29 -5 35 -31
5 -25 10 -30 28 -27 17 2 24 11 26 31 3 24 7 27 40 26 l37 -1 -28 -10 c-17 -6
-26 -15 -23 -23 3 -8 0 -15 -7 -18 -6 -2 1 -12 16 -21 15 -10 34 -15 43 -12
23 9 13 39 -16 47 -24 7 -24 7 -2 8 12 1 22 7 22 16 0 8 7 15 15 15 11 0 15
-12 15 -45 0 -25 5 -45 10 -45 6 0 10 20 10 45 l0 45 51 0 c31 0 48 -4 44 -10
-3 -5 -22 -10 -41 -10 -24 0 -34 -4 -34 -16 0 -22 19 -54 32 -54 6 0 3 9 -6
19 -18 19 -15 41 5 41 6 0 7 -4 4 -10 -3 -5 -2 -10 4 -10 5 0 13 5 16 10 14
22 26 9 20 -20 -4 -19 -3 -30 4 -30 6 0 11 19 11 45 l0 45 41 0 c46 0 51 -23
6 -28 -27 -3 -35 -16 -17 -27 6 -3 10 -1 10 4 0 6 9 11 19 11 14 0 21 -8 24
-27 2 -17 5 -10 6 20 1 34 5 47 15 47 11 0 16 -14 19 -47 l3 -48 2 48 c1 26 7
47 12 47 6 0 -2 14 -17 30 -14 17 -32 30 -39 30 -15 0 -26 -27 -14 -35 6 -4
10 1 10 9 0 9 4 16 9 16 13 0 32 -26 24 -33 -3 -4 -57 -7 -120 -7 -93 0 -113
3 -113 15 0 23 44 29 81 10 l34 -16 -24 21 c-22 19 -80 28 -94 13z"/>
<path d="M1560 310 c0 -5 11 -10 23 -10 16 0 28 -9 35 -25 l12 -25 -78 -1
c-42 -1 -67 -4 -54 -6 26 -5 29 -28 5 -42 -17 -9 -16 -11 1 -30 11 -12 29 -21
41 -21 14 0 26 -8 31 -23 6 -16 9 -4 11 46 3 59 6 67 23 67 18 0 20 -8 22 -67
l1 -68 6 65 c6 62 7 65 34 68 23 3 27 0 27 -22 0 -13 -5 -26 -12 -28 -14 -5
-4 -38 12 -38 5 0 10 20 10 45 0 41 2 45 25 45 24 0 25 -2 25 -65 0 -37 4 -65
10 -65 6 0 10 28 10 64 0 42 4 66 13 69 6 3 -25 6 -70 6 l-81 1 -21 35 c-19
33 -61 50 -61 25z"/>
<path d="M2114 306 c-3 -8 -1 -24 6 -35 11 -21 9 -21 -112 -22 -68 0 -117 -3
-110 -6 6 -2 12 -19 12 -37 0 -38 15 -56 46 -56 15 0 24 -7 27 -22 2 -13 5 7
6 45 1 60 3 67 21 67 16 0 20 -7 20 -35 0 -24 6 -37 21 -45 31 -17 48 -5 55
40 10 59 29 44 29 -23 0 -30 3 -59 8 -63 4 -4 7 23 7 59 l0 67 55 0 c42 0 55
-3 55 -15 0 -11 -11 -15 -35 -15 -24 0 -38 -5 -42 -16 -7 -19 26 -86 39 -78 4
3 -1 17 -12 31 -23 29 -17 41 20 45 23 3 26 -1 31 -42 6 -43 6 -42 7 18 2 49
6 64 20 70 10 4 -16 9 -62 12 -62 4 -81 9 -90 23 -9 15 -7 21 8 33 19 14 19
14 -2 14 -13 0 -25 -6 -28 -14z"/>
<path d="M2470 295 c-7 -8 -10 -21 -7 -29 4 -9 -1 -17 -11 -19 -16 -4 -15 -5
1 -6 14 -1 17 -12 19 -68 l1 -68 6 65 6 65 53 3 c47 3 52 1 52 -17 0 -17 -6
-21 -33 -21 -38 0 -48 -6 -40 -26 7 -19 23 -18 38 3 17 23 35 7 35 -33 0 -19
5 -34 10 -34 6 0 10 28 10 65 0 71 10 81 45 42 11 -13 16 -17 11 -10 -13 20
10 41 26 25 18 -18 -2 -46 -37 -52 -25 -5 -27 -6 -12 -19 10 -7 17 -10 17 -5
0 5 11 -4 24 -21 13 -16 28 -27 32 -23 4 5 -1 17 -11 28 -17 19 -17 21 -1 39
11 13 15 27 11 40 -5 15 -2 21 9 21 13 0 16 -12 16 -59 0 -33 5 -63 10 -66 6
-4 10 18 10 59 l0 66 100 0 c55 0 100 -4 100 -9 0 -9 -77 -23 -135 -25 -22 -1
-31 -6 -33 -22 -3 -24 35 -77 50 -68 5 3 0 13 -12 21 -13 9 -20 23 -18 36 4
24 28 36 28 13 0 -9 5 -16 10 -16 6 0 10 5 10 10 0 6 7 10 15 10 8 0 15 -7 15
-15 0 -18 34 -37 54 -29 12 5 16 0 16 -17 0 -32 18 -11 22 26 2 19 9 31 21 33
16 3 18 -1 12 -27 -8 -36 2 -42 14 -8 13 34 -5 60 -36 52 -20 -5 -24 -2 -21
12 2 12 16 20 43 24 22 3 -89 7 -247 8 -280 1 -288 2 -288 21 0 31 43 36 87
11 l38 -22 -28 26 c-32 28 -87 34 -107 10z"/>
<path d="M978 243 c15 -3 22 -11 22 -29 0 -13 -4 -24 -10 -24 -18 0 -11 -26
15 -54 13 -14 30 -26 37 -26 7 1 1 11 -15 23 -31 26 -27 37 15 37 24 0 28 -4
28 -30 0 -16 5 -30 10 -30 6 0 10 28 10 65 l0 65 50 0 c57 0 65 -11 18 -25
-31 -9 -33 -13 -30 -50 3 -45 39 -85 75 -84 17 0 13 4 -13 13 -27 10 -35 18
-35 37 0 19 6 25 30 27 30 4 30 4 11 -17 -16 -17 -16 -21 -4 -21 21 0 31 29
16 47 -8 10 -22 13 -40 9 -21 -4 -28 -2 -28 9 0 10 10 15 29 15 20 0 30 6 34
20 5 18 14 20 76 20 56 0 71 -3 71 -15 0 -11 -11 -15 -37 -15 -34 -1 -36 -2
-20 -14 21 -16 22 -35 1 -43 -10 -4 -25 4 -41 23 -14 17 -20 21 -14 9 5 -11
19 -29 31 -40 25 -23 55 -10 54 24 0 11 5 21 13 21 9 0 13 -13 13 -40 0 -22 5
-40 10 -40 6 0 10 28 10 64 0 42 4 66 13 69 6 3 -87 5 -208 5 -121 0 -210 -3
-197 -5z"/>
</g>
</svg>
