<?xml version="1.0" standalone="no"?>
<!DOCTYPE svg PUBLIC "-//W3C//DTD SVG 20010904//EN"
 "http://www.w3.org/TR/2001/REC-SVG-20010904/DTD/svg10.dtd">
<svg version="1.0" xmlns="http://www.w3.org/2000/svg"
 width="900.000000pt" height="900.000000pt" viewBox="0 0 900.000000 900.000000"
 preserveAspectRatio="xMidYMid meet">
<metadata>
Created by potrace 1.16, written by Peter Selinger 2001-2019
</metadata>
<g transform="translate(0.000000,900.000000) scale(0.100000,-0.100000)"
fill="#000000" stroke="none">
<path d="M0 4500 l0 -4500 4500 0 4500 0 0 4500 0 4500 -4500 0 -4500 0 0
-4500z m4580 3940 c0 -20 16 -9 50 35 19 24 40 44 46 45 6 0 20 -36 29 -79
l19 -80 58 55 c33 29 63 54 68 54 4 0 11 -22 15 -49 l7 -50 49 30 c27 17 53
28 58 25 5 -4 7 -31 4 -62 l-6 -56 31 16 c49 25 66 21 59 -14 -7 -33 -1 -36
51 -21 28 8 32 7 32 -9 0 -10 -5 -31 -10 -45 -10 -27 -10 -27 25 -21 19 4 35
5 35 3 0 -3 -7 -24 -15 -47 -8 -23 -15 -46 -15 -51 0 -4 25 -5 55 -2 61 6 65
1 40 -47 l-16 -30 31 0 c17 0 30 -5 30 -13 0 -25 -95 -153 -164 -222 -112
-110 -248 -180 -371 -192 l-65 -6 0 31 c0 21 -7 36 -20 44 -11 7 -20 21 -20
30 0 25 -12 22 -39 -6 -13 -14 -30 -22 -38 -19 -12 5 -12 7 -1 14 10 7 9 9 -3
9 -24 0 -45 28 -32 41 8 8 21 5 44 -7 33 -17 34 -17 19 2 -7 10 -21 25 -29 31
-13 11 -12 21 10 80 21 59 24 85 24 198 0 81 -5 145 -13 170 -18 54 -74 188
-83 198 -10 12 -63 -132 -84 -226 -25 -113 -17 -275 19 -376 24 -69 25 -76 10
-92 -19 -21 -34 -16 -34 12 0 11 7 19 18 19 10 1 5 6 -14 14 -46 21 -68 104
-69 273 l-2 132 -56 68 c-30 37 -69 81 -85 96 l-30 28 -6 -63 c-9 -82 8 -222
38 -302 28 -79 62 -137 120 -207 43 -51 44 -54 23 -59 -15 -4 -23 -15 -25 -35
-3 -25 -2 -27 12 -16 14 12 16 10 16 -13 0 -18 4 -25 12 -20 7 4 8 3 4 -4 -4
-6 -12 -9 -19 -7 -7 2 -24 7 -39 9 -28 5 -28 4 -10 -19 13 -17 21 -21 35 -14
15 9 17 5 17 -30 0 -51 -15 -91 -35 -91 -8 0 -15 5 -15 11 0 5 -5 7 -11 4 -6
-5 -4 -12 8 -22 16 -13 16 -14 1 -9 -11 3 -17 0 -15 -7 1 -7 -4 -11 -11 -9 -8
1 -11 -2 -8 -7 7 -11 -18 -33 -28 -24 -4 4 -4 0 -1 -9 4 -9 1 -19 -6 -24 -8
-5 -10 -3 -4 7 5 8 5 11 0 7 -11 -10 -18 -61 -19 -138 0 -55 4 -74 28 -114 16
-27 37 -51 47 -53 10 -3 17 -9 14 -13 -3 -5 0 -12 6 -16 8 -4 9 -3 5 4 -8 13
4 15 28 6 25 -10 -10 -57 -36 -48 -11 3 -30 7 -41 9 -12 1 -42 8 -66 14 -34
10 -41 15 -30 23 10 7 8 8 -8 3 -24 -7 -87 27 -75 40 4 5 2 5 -5 2 -17 -10
-59 45 -78 104 -19 56 -16 120 9 167 23 45 72 96 85 88 7 -5 10 -2 9 5 -3 15
112 80 126 72 5 -3 6 -2 3 4 -3 5 10 15 29 22 44 16 46 36 2 26 -151 -36 -404
117 -537 324 -51 79 -52 91 -5 91 34 0 35 1 20 22 -26 36 -20 48 24 48 l39 0
-14 41 c-20 57 -20 58 23 48 62 -14 63 -14 47 36 -7 25 -10 47 -5 50 4 2 22 0
41 -5 52 -15 55 -13 51 30 l-4 40 36 -15 c19 -8 38 -15 41 -15 3 0 3 23 -1 50
-8 59 -1 62 63 25 l43 -26 0 38 c0 21 4 45 10 53 10 16 13 13 95 -62 45 -43
55 -46 55 -19 0 22 30 122 40 134 4 5 27 -17 51 -47 24 -31 46 -56 49 -56 3 0
21 30 39 67 l33 67 29 -47 c16 -26 29 -51 29 -57z m231 -890 c142 -72 218
-191 190 -297 -25 -91 -104 -163 -214 -193 l-63 -18 -44 26 -44 26 35 14 c123
50 154 208 63 327 -29 39 -34 87 -13 127 13 24 20 23 90 -12z m-181 -105 c29
-31 40 -32 40 -3 0 20 3 19 35 -12 44 -43 65 -108 56 -170 -13 -80 -53 -125
-122 -136 l-38 -6 16 -33 c14 -30 14 -35 0 -56 -16 -22 -16 -23 12 -35 18 -8
37 -29 52 -60 l24 -49 3 -483 c2 -387 0 -483 -10 -480 -7 3 -15 15 -18 29 -4
14 -14 25 -27 27 -12 2 -28 14 -37 27 -11 16 -22 22 -36 18 -20 -5 -20 -3 -20
456 0 306 -3 460 -10 456 -6 -4 -10 -165 -10 -452 0 -387 -2 -444 -15 -440 -8
4 -17 2 -20 -4 -21 -33 -25 40 -25 447 0 289 -3 444 -10 444 -7 0 -10 -159
-10 -456 0 -401 -2 -455 -15 -450 -9 3 -21 -4 -31 -19 -10 -15 -26 -25 -40
-25 -19 0 -24 -5 -24 -24 0 -22 -29 -59 -31 -40 -1 5 -1 224 0 487 1 406 4
484 17 515 19 45 53 84 68 75 5 -4 0 10 -12 31 l-22 38 20 26 21 26 -43 13
c-24 7 -50 19 -59 26 -50 39 -64 149 -29 222 25 51 70 97 70 72 0 -17 33 -41
43 -31 3 3 12 -3 19 -15 7 -12 21 -21 30 -21 16 0 18 -11 18 -94 0 -125 18
-136 22 -14 3 91 3 92 28 92 24 0 25 -1 28 -84 4 -125 22 -126 22 -1 0 92 2
102 17 97 9 -4 20 -1 25 6 14 22 9 29 -17 22 -21 -5 -25 -3 -25 16 0 14 8 24
21 27 16 4 17 8 7 14 -10 7 -10 9 3 9 8 0 26 -11 39 -25z m-636 -62 c-18 -59
-18 -87 1 -149 28 -95 136 -182 248 -200 21 -4 36 -9 34 -13 -1 -3 -14 -28
-27 -56 l-25 -50 -8 -2135 c-8 -2223 -7 -2449 13 -2515 24 -77 91 -127 203
-150 23 -5 27 -10 27 -40 0 -19 5 -35 10 -35 6 0 10 43 10 110 0 67 -4 110
-10 110 -5 0 -10 -12 -10 -26 0 -25 -2 -26 -36 -21 -82 14 -113 87 -110 262 2
61 3 225 4 365 2 162 6 250 12 240 16 -25 21 -5 7 29 -7 17 -17 28 -22 24 -4
-5 -4 -1 0 7 5 8 10 30 12 48 2 19 11 48 19 64 15 29 15 29 -5 18 l-21 -11 -1
513 c-1 282 -2 552 -2 600 0 48 2 90 4 92 3 3 14 3 26 0 14 -4 23 -17 28 -40
5 -31 8 -34 33 -28 42 10 46 20 13 33 -85 36 -126 162 -81 251 20 40 76 90
100 90 21 0 -1 18 -32 25 -24 6 -27 4 -33 -28 -5 -24 -14 -37 -28 -41 -12 -3
-22 -4 -24 -2 -2 2 -5 763 -3 958 0 36 28 27 32 -10 2 -19 10 -28 26 -30 12
-2 27 -12 32 -23 6 -10 20 -19 30 -19 20 0 20 -9 20 -409 l0 -409 55 -4 c36
-3 66 -13 85 -27 31 -22 35 -17 24 26 -5 18 -11 21 -35 16 l-29 -5 0 406 0
406 25 0 c14 0 29 8 35 19 5 11 20 21 32 23 14 2 24 12 28 27 3 14 11 26 18
29 9 3 12 -104 12 -486 0 -269 -3 -491 -6 -495 -3 -3 -17 -1 -31 4 -35 13 -38
7 -14 -40 60 -118 -13 -255 -143 -268 l-56 -6 0 -531 0 -531 53 -1 52 0 -3
529 -2 530 29 -6 c28 -6 31 -4 36 27 6 27 13 35 41 44 21 6 36 7 40 1 6 -11 2
-1146 -4 -1192 -4 -22 -7 -25 -18 -16 -18 15 -32 3 -16 -13 15 -15 16 -107 2
-144 -13 -33 -8 -40 13 -19 9 8 17 12 20 8 2 -5 4 -325 6 -711 1 -522 -1 -718
-10 -758 -12 -53 -8 -77 11 -58 8 8 31 119 32 149 0 67 0 2802 -1 2835 0 34 2
40 9 25 6 -14 9 -16 9 -4 1 8 -4 20 -9 25 -15 15 -14 1189 1 1216 7 14 7 18 1
14 -16 -10 -17 47 -12 524 4 387 3 444 -12 519 -17 79 -39 131 -56 131 -16 1
-44 29 -37 39 7 13 63 -13 82 -38 20 -26 54 -101 52 -114 -1 -7 1 -19 5 -27 3
-8 5 -1196 4 -2640 l-3 -2625 -24 -48 c-13 -26 -20 -51 -16 -55 11 -11 44 36
57 81 13 47 17 1937 8 4102 l-5 1240 -26 56 -27 56 54 12 c100 23 200 112 225
204 l12 42 20 -60 c27 -81 29 -307 4 -409 -10 -38 -15 -71 -13 -73 2 -3 14 1
26 7 17 9 26 8 46 -5 37 -24 39 -40 11 -103 -39 -88 -57 -160 -57 -228 0 -65
-13 -113 -33 -126 -24 -15 -55 -8 -62 15 -6 17 -9 10 -16 -34 -4 -31 -24 -105
-43 -166 -52 -159 -47 -223 24 -313 33 -42 1 -30 480 -182 312 -99 420 -196
480 -431 22 -89 40 -280 40 -432 0 -142 17 -298 41 -375 12 -36 49 -177 84
-315 68 -271 104 -377 163 -475 35 -58 43 -64 98 -84 119 -43 186 -107 323
-309 39 -57 87 -119 108 -138 133 -121 216 -177 309 -210 50 -17 97 -22 295
-29 261 -9 258 -8 381 -86 37 -24 82 -51 100 -60 18 -9 49 -30 68 -45 19 -15
75 -40 125 -56 70 -22 98 -36 127 -65 45 -45 48 -69 12 -97 -21 -17 -41 -21
-95 -21 -77 0 -124 15 -215 71 -101 62 -127 61 -140 -6 -9 -48 21 -105 112
-216 108 -131 251 -329 296 -408 41 -71 47 -111 22 -132 -13 -11 -23 -9 -60
10 -46 25 -105 88 -216 232 -118 152 -158 185 -196 161 -15 -10 -8 -34 21 -74
11 -15 16 -31 12 -39 -5 -7 -4 -10 3 -5 11 6 105 -119 105 -141 0 -7 3 -11 5
-8 9 9 33 -35 26 -47 -4 -6 -3 -8 3 -5 14 9 56 -61 47 -75 -4 -6 -3 -8 3 -5 5
3 33 -29 62 -72 56 -83 67 -129 38 -159 -14 -13 -17 -13 -17 -2 0 10 -3 11
-11 3 -7 -7 -25 4 -60 39 -45 45 -54 59 -50 81 1 5 -3 6 -8 2 -12 -7 -33 29
-23 40 4 3 2 5 -4 3 -13 -3 -147 179 -147 199 0 7 -3 10 -7 8 -4 -3 -29 27
-56 65 -27 38 -59 74 -71 79 -22 10 -23 8 -23 -25 0 -48 17 -85 95 -205 92
-142 90 -139 104 -182 11 -32 10 -41 -3 -62 -42 -64 -112 -11 -198 150 -82
153 -150 263 -180 293 -23 23 -27 35 -28 82 l0 55 -51 18 c-101 36 -180 143
-182 246 -2 106 50 193 148 247 49 28 55 34 34 34 -37 0 -108 -50 -150 -106
l-35 -48 -100 -1 c-61 -1 -102 3 -106 9 -4 6 -8 38 -8 71 0 43 -3 56 -11 48
-6 -6 -9 -35 -7 -67 1 -31 3 -56 2 -56 -1 0 -52 24 -115 54 -63 30 -177 79
-253 111 -208 85 -307 137 -451 240 -146 104 -214 167 -278 258 -36 50 -46 73
-51 120 -3 33 -26 112 -51 178 -54 144 -63 178 -114 435 -23 113 -53 233 -70
275 -32 81 -66 232 -77 347 -4 40 -11 75 -17 79 -25 16 24 -271 70 -407 34
-100 35 -109 29 -200 -3 -53 -22 -161 -42 -245 -30 -127 -36 -174 -41 -305 -5
-133 -2 -175 17 -285 26 -150 23 -244 -10 -415 -25 -122 -20 -176 16 -220 15
-17 43 -34 67 -41 53 -14 264 -6 402 16 436 70 562 78 743 49 159 -25 223 -69
261 -179 12 -33 45 -96 75 -140 112 -168 118 -182 129 -285 6 -52 11 -131 11
-175 l1 -79 -85 -69 c-47 -37 -121 -85 -165 -107 -44 -21 -246 -95 -450 -164
-203 -70 -383 -133 -400 -140 -128 -59 -411 -111 -770 -141 -203 -17 -364 -39
-393 -54 -9 -5 -57 -16 -107 -26 -249 -46 -632 -153 -735 -205 -104 -52 -121
-54 -475 -55 -391 -1 -392 -1 -442 -85 -34 -57 -82 -93 -118 -88 -37 5 -22 32
27 48 48 15 98 54 85 66 -4 4 -17 -2 -30 -13 -12 -11 -40 -26 -62 -33 -22 -7
-54 -21 -71 -31 -31 -19 -54 -12 -54 16 0 23 46 54 89 59 37 4 51 12 87 53 43
48 58 77 27 52 -9 -8 -32 -31 -51 -51 -28 -31 -41 -38 -72 -38 -23 0 -48 -8
-64 -21 -23 -18 -32 -20 -52 -10 -19 8 -24 18 -24 45 0 49 40 76 112 76 49 0
59 4 105 42 29 24 52 46 52 51 2 16 -18 5 -60 -32 -37 -32 -54 -40 -99 -44
-30 -3 -70 -9 -88 -12 -40 -9 -62 7 -62 46 0 32 12 41 83 58 111 27 156 50
188 99 18 26 41 55 53 64 11 9 18 20 14 24 -7 6 -37 -22 -104 -100 -38 -44
-56 -47 -48 -8 7 36 -28 82 -62 82 -31 0 -48 -40 -39 -96 5 -37 4 -42 -17 -48
-36 -9 -47 -7 -68 14 -25 25 -27 97 -4 146 9 19 49 61 88 94 39 32 82 73 94
90 59 79 140 89 312 40 215 -62 334 -73 465 -44 39 8 162 21 275 29 194 13
342 35 383 57 32 17 14 18 -43 3 -83 -22 -179 -34 -367 -45 -95 -5 -200 -17
-235 -25 -127 -30 -293 -15 -468 41 -41 13 -107 27 -146 30 -64 6 -77 4 -126
-19 -49 -24 -61 -25 -110 -17 -58 9 -92 24 -258 113 -87 46 -130 62 -250 90
-288 70 -412 140 -471 271 -47 104 -4 316 101 496 21 36 48 98 61 138 20 66
25 74 58 88 20 8 65 32 101 54 116 69 229 92 457 91 212 0 426 -31 698 -101
122 -31 138 -29 153 22 47 160 46 151 32 276 -18 158 -16 329 5 422 34 152 37
177 32 265 -3 50 -17 144 -32 209 -34 155 -38 274 -15 389 10 48 22 132 25
187 8 100 -1 270 -13 270 -4 0 -6 -64 -4 -142 6 -250 -29 -403 -164 -729 -88
-212 -118 -312 -134 -444 -13 -115 -25 -136 -109 -207 -31 -25 -110 -92 -176
-148 -121 -102 -188 -143 -302 -186 -74 -28 -223 -70 -278 -78 -22 -3 -92 -28
-155 -57 -63 -28 -121 -53 -128 -56 -10 -4 -11 10 -6 63 4 42 2 86 -6 113 -11
42 -49 91 -70 91 -17 0 -11 -18 9 -25 58 -18 67 -153 20 -302 -38 -122 -51
-152 -99 -233 -21 -36 -50 -105 -65 -155 -77 -261 -103 -315 -155 -334 -77
-27 -89 17 -35 131 48 101 54 139 25 168 l-22 22 -33 -32 c-19 -18 -66 -94
-105 -169 -110 -209 -165 -274 -205 -241 -31 26 -14 76 89 255 66 112 81 165
48 165 -31 0 -77 -54 -159 -187 -99 -160 -137 -205 -172 -201 -17 2 -29 11
-35 30 -13 38 12 98 91 215 97 144 133 233 94 233 -28 0 -118 -103 -192 -221
-87 -140 -119 -169 -145 -134 -19 26 -17 82 5 131 10 22 60 107 111 190 135
216 190 345 190 447 0 47 0 47 -151 -29 -170 -85 -253 -101 -301 -57 -10 9
-18 28 -18 42 0 56 47 91 176 129 38 12 86 33 105 46 19 14 48 33 64 42 17 9
55 36 85 59 103 79 101 78 335 80 155 1 227 6 275 18 208 51 435 199 513 335
107 185 232 297 384 342 37 11 45 19 71 74 53 110 60 136 102 367 33 184 60
273 119 386 l40 78 -1 235 c-1 339 33 522 122 659 47 73 97 112 212 165 94 44
155 67 468 176 96 34 185 68 197 76 31 20 63 86 70 143 5 43 0 59 -36 134 -43
89 -81 217 -81 274 0 18 -4 33 -10 33 -5 0 -10 -12 -10 -26 0 -36 -17 -64 -40
-64 -28 0 -33 15 -41 125 -6 92 -10 107 -53 194 -25 52 -46 105 -46 118 0 30
43 75 64 67 14 -5 14 -1 2 43 -53 181 -44 377 24 520 27 58 66 123 75 123 2 0
-3 -21 -11 -47z m366 -378 c0 -8 -4 -15 -9 -15 -5 0 -19 -24 -32 -52 l-24 -53
-3 -1135 c-1 -704 -6 -1138 -12 -1144 -6 -6 -6 -14 0 -21 7 -8 10 -412 10
-1123 1 -1212 -1 -1179 57 -1235 16 -14 46 -30 68 -35 30 -6 41 -13 43 -30 3
-17 -2 -22 -20 -22 -44 0 -99 21 -133 51 -70 62 -65 -114 -65 2404 0 2455 -3
2331 51 2399 23 29 69 36 69 11z m241 -1021 c44 -22 86 -79 97 -131 33 -152
-93 -274 -238 -233 -148 42 -182 261 -55 349 59 40 135 46 196 15z m-75 -404
c12 0 14 -59 14 -385 0 -258 -3 -385 -10 -385 -6 0 -13 6 -16 14 -3 8 -12 12
-20 9 -12 -4 -14 51 -14 377 0 344 2 382 16 376 9 -3 22 -6 30 -6z m14 -1705
c0 -442 -2 -505 -15 -505 -8 0 -15 6 -16 13 0 10 -2 10 -6 0 -19 -49 -23 34
-23 480 l0 492 23 11 c12 7 25 12 30 13 4 0 7 -226 7 -504z m1528 -2736 c39
-37 72 -98 72 -136 0 -31 -37 -78 -69 -88 -17 -5 -81 18 -81 29 0 2 15 3 33 2
32 -1 32 -1 35 50 2 40 -1 54 -17 68 -40 36 -102 -13 -85 -67 6 -19 3 -18 -29
8 -19 17 -54 42 -76 57 -23 15 -41 31 -41 35 0 8 181 70 210 72 8 0 30 -13 48
-30z m-252 -70 c16 -17 45 -39 66 -50 20 -10 46 -31 58 -46 12 -15 39 -40 61
-55 22 -15 35 -29 29 -33 -19 -12 -74 15 -125 60 -48 42 -65 53 -65 39 0 -8
87 -86 114 -101 12 -7 51 -12 89 -13 37 0 67 -4 67 -9 0 -4 -20 -14 -45 -21
-77 -22 -186 1 -260 54 -26 18 -42 21 -130 19 -414 -8 -523 -7 -580 5 -186 41
-236 55 -228 62 10 10 208 35 448 56 99 8 239 26 310 38 72 13 137 24 146 25
8 0 28 -13 45 -30z"/>
<path d="M4742 8295 l-73 -79 8 -50 c16 -101 7 -224 -24 -318 l-29 -88 29 28
c38 36 111 156 130 212 28 83 38 164 35 269 l-3 104 -73 -78z"/>
<path d="M4035 8218 c13 -81 68 -230 107 -290 39 -61 123 -149 159 -169 13 -7
4 13 -27 58 -73 107 -112 209 -129 339 -6 49 -9 53 -55 78 -26 14 -51 26 -55
26 -4 0 -4 -19 0 -42z"/>
<path d="M4940 8230 c-62 -35 -70 -44 -70 -85 0 -88 -77 -272 -147 -354 -44
-52 -29 -53 34 -2 65 51 117 113 158 186 46 84 108 285 87 285 -4 0 -32 -14
-62 -30z"/>
<path d="M4496 3255 c5 -12 -4 -15 -50 -15 l-57 0 17 -32 c9 -18 28 -43 43
-55 14 -12 20 -22 14 -23 -7 0 -13 5 -13 12 0 9 -3 9 -11 1 -9 -9 -17 -6 -31
10 -17 19 -16 16 3 -18 24 -43 49 -74 30 -38 -13 26 -14 33 -2 33 6 0 22 -22
37 -49 l28 -49 32 53 c38 63 52 101 34 90 -9 -5 -11 -4 -6 4 4 6 11 9 16 6 8
-5 40 37 40 54 0 6 -11 7 -27 2 -34 -9 -79 1 -75 17 1 7 -5 12 -13 12 -9 0
-12 -6 -9 -15z"/>
<path d="M4631 3046 c-23 -28 -88 -53 -130 -50 l-41 3 0 -165 c0 -103 4 -164
10 -164 6 0 10 57 10 151 0 129 2 150 15 146 8 -4 17 -2 20 3 19 31 25 -4 25
-145 0 -94 4 -155 10 -155 6 0 11 65 12 163 l3 162 37 3 c29 3 37 8 43 29 7
31 2 38 -14 19z"/>
<path d="M7030 2680 c-11 -11 -20 -31 -20 -45 0 -31 41 -75 70 -75 26 0 70 43
70 68 0 59 -79 93 -120 52z"/>
<path d="M1557 2676 c-154 -55 -233 -216 -181 -369 21 -61 91 -139 151 -168
36 -17 66 -23 123 -23 122 -1 212 52 268 159 36 68 38 178 4 246 -66 134 -229
203 -365 155z m220 -32 c202 -97 204 -382 3 -483 -188 -93 -400 33 -400 238 1
209 207 336 397 245z"/>
<path d="M1594 2526 c-93 -41 -105 -176 -19 -232 36 -24 95 -28 138 -11 103
44 101 199 -3 241 -49 19 -75 20 -116 2z m138 -32 c35 -32 51 -80 38 -120 -34
-103 -179 -115 -225 -18 -11 23 -15 47 -11 68 6 31 45 77 76 89 28 11 101 0
122 -19z"/>
<path d="M7325 2493 c-11 -3 -32 -14 -48 -25 -108 -77 -51 -238 83 -238 57 0
88 16 117 59 55 81 3 190 -97 204 -19 3 -44 3 -55 0z m79 -27 c47 -20 76 -61
76 -108 0 -32 -7 -47 -34 -74 -29 -29 -41 -34 -83 -34 -28 0 -58 7 -71 16 -27
19 -52 65 -52 96 0 35 37 88 73 103 41 18 50 18 91 1z"/>
<path d="M2700 2230 c-63 -9 -90 -18 -90 -31 0 -5 12 -4 28 2 45 17 193 23
283 10 267 -38 479 -131 727 -320 254 -193 392 -274 560 -331 48 -16 86 -34
85 -40 -2 -5 2 -10 7 -10 6 0 10 3 10 8 -1 19 -21 32 -93 56 -160 54 -299 136
-557 329 -232 174 -425 266 -655 311 -102 19 -235 27 -305 16z"/>
<path d="M4512 2160 c-3 -104 -8 -115 -62 -150 -60 -39 -70 -50 -81 -97 -19
-82 25 -155 106 -180 34 -10 44 -9 77 8 77 39 103 138 53 197 -39 47 -119 58
-159 24 -22 -20 -46 -73 -46 -102 0 -32 50 -80 92 -87 32 -5 41 -1 68 25 51
51 38 123 -25 141 -40 11 -73 -2 -86 -36 -14 -38 -3 -72 28 -84 35 -13 62 -3
69 27 10 38 -2 56 -33 52 -34 -4 -40 -41 -8 -46 16 -3 18 -1 8 9 -17 17 -16
29 1 29 22 0 27 -27 8 -49 -13 -15 -22 -17 -39 -11 -46 18 -21 100 30 100 61
-1 83 -72 39 -122 -23 -27 -78 -23 -107 7 -77 76 31 198 122 138 57 -38 63
-119 13 -173 -22 -24 -36 -30 -70 -30 -101 0 -154 79 -119 179 8 22 29 43 65
67 30 19 57 40 60 47 3 8 3 54 1 103 l-3 89 -2 -75z"/>
<path d="M5800 2090 c-224 -48 -368 -125 -701 -376 -101 -77 -219 -161 -261
-188 -43 -27 -78 -53 -78 -58 0 -19 109 53 327 215 253 189 352 254 468 308
147 67 269 97 413 100 45 1 85 6 88 10 9 16 -169 8 -256 -11z"/>
<path d="M4420 1613 c-72 -55 -86 -90 -81 -192 1 -11 16 -40 35 -64 19 -25 31
-49 28 -53 -4 -4 -1 -4 5 0 7 4 22 2 34 -5 25 -13 130 -19 123 -7 -3 4 3 8 13
8 10 0 27 11 37 25 10 13 22 22 26 20 13 -8 40 72 40 116 0 46 -19 98 -44 119
-10 8 -23 26 -28 40 -6 14 -12 20 -15 13 -3 -9 -10 -10 -22 -3 -10 5 -38 11
-63 13 -38 3 -51 -2 -88 -30z m198 -32 c-16 -43 -105 -221 -110 -221 -7 0
-108 205 -108 220 0 6 47 10 111 10 61 0 109 -4 107 -9z"/>
<path d="M4474 5981 c-139 -35 -176 -227 -61 -315 41 -31 97 -45 97 -25 0 8
-19 43 -42 79 -26 41 -42 77 -42 97 0 18 -3 28 -7 21 -4 -7 -13 0 -23 19 l-15
30 71 6 c39 3 98 3 132 0 l62 -6 -15 -33 c-10 -23 -18 -30 -23 -21 -5 7 -8 1
-8 -17 0 -33 -47 -119 -60 -111 -4 3 -6 -3 -3 -14 3 -10 0 -22 -6 -25 -17 -11
-13 -36 6 -36 30 0 101 49 123 85 29 46 29 129 1 182 -34 66 -114 102 -187 84z"/>
</g>
</svg>
