<svg width="421" height="331" viewBox="0 0 421 331" fill="none" xmlns="http://www.w3.org/2000/svg">
<ellipse opacity="0.3" cx="155.857" cy="319.881" rx="155.664" ry="11.1189" fill="#010103"/>
<path d="M140.984 309.202C127.427 309.202 116.334 308.74 107.707 307.816C99.0792 306.891 89.6815 305.043 79.5134 302.269C69.0372 299.188 60.5638 294.874 54.0932 289.328C47.6226 283.474 42.2304 275.155 37.9167 264.37C33.2948 253.894 30.9839 241.261 30.9839 226.471V82.7312C30.9839 68.5575 33.1408 56.0785 37.4545 45.2942C41.7682 34.5099 47.3144 26.0365 54.0932 19.874C59.9475 14.6359 67.9587 10.4762 78.1268 7.39499C88.2949 4.00561 98.463 1.84875 108.631 0.924387C120.34 0.308129 131.124 0 140.984 0C154.85 0 165.942 0.462189 174.261 1.38657C182.581 2.00281 191.824 3.85154 201.993 6.93278C213.085 10.3222 221.867 14.79 228.337 20.3362C234.808 25.8824 240.354 33.8936 244.976 44.3698C249.598 54.846 251.909 67.6332 251.909 82.7312V226.471C251.909 240.645 249.598 253.124 244.976 263.908C240.662 274.692 235.116 283.012 228.337 288.866C222.175 294.104 213.701 298.418 202.917 301.807C192.441 305.197 182.427 307.199 172.875 307.816C164.247 308.74 153.617 309.202 140.984 309.202ZM141.908 265.757C154.85 265.757 164.093 264.986 169.64 263.446C175.186 261.597 178.883 258.362 180.732 253.74C182.581 249.118 183.505 241.569 183.505 231.093V78.1094C183.505 67.6332 182.581 60.0841 180.732 55.4623C178.883 50.8404 175.186 47.7592 169.64 46.2186C164.093 44.3698 154.85 43.4455 141.908 43.4455C128.659 43.4455 119.107 44.3698 113.253 46.2186C107.707 47.7592 104.009 50.8404 102.16 55.4623C100.312 60.0841 99.3874 67.6332 99.3874 78.1094V231.093C99.3874 241.569 100.312 249.118 102.16 253.74C104.009 258.362 107.707 261.597 113.253 263.446C119.107 264.986 128.659 265.757 141.908 265.757Z" fill="#0720AA"/>
<path d="M155.813 316.616C142.256 316.616 131.163 316.154 122.536 315.23C113.908 314.305 104.511 312.457 94.3425 309.684C83.8663 306.602 75.3929 302.289 68.9223 296.742C62.4517 290.888 57.0595 282.569 52.7458 271.784C48.1239 261.308 45.813 248.675 45.813 233.885V90.1453C45.813 75.9716 47.9699 63.4926 52.2836 52.7082C56.5973 41.9239 62.1435 33.4505 68.9223 27.288C74.7766 22.0499 82.7878 17.8903 92.9559 14.809C103.124 11.4197 113.292 9.26281 123.46 8.33845C135.169 7.72219 145.953 7.41406 155.813 7.41406C169.679 7.41406 180.771 7.87625 189.091 8.80063C197.41 9.41687 206.654 11.2656 216.822 14.3468C227.914 17.7362 236.696 22.204 243.166 27.7502C249.637 33.2965 255.183 41.3077 259.805 51.7839C264.427 62.2601 266.738 75.0472 266.738 90.1453V233.885C266.738 248.059 264.427 260.538 259.805 271.322C255.491 282.106 249.945 290.426 243.166 296.28C237.004 301.518 228.53 305.832 217.746 309.221C207.27 312.611 197.256 314.613 187.704 315.23C179.077 316.154 168.446 316.616 155.813 316.616ZM156.738 273.171C169.679 273.171 178.922 272.401 184.469 270.86C190.015 269.011 193.712 265.776 195.561 261.154C197.41 256.532 198.334 248.983 198.334 238.507V85.5235C198.334 75.0472 197.41 67.4982 195.561 62.8763C193.712 58.2545 190.015 55.1733 184.469 53.6326C178.922 51.7839 169.679 50.8595 156.738 50.8595C143.488 50.8595 133.936 51.7839 128.082 53.6326C122.536 55.1733 118.838 58.2545 116.99 62.8763C115.141 67.4982 114.216 75.0472 114.216 85.5235V238.507C114.216 248.983 115.141 256.532 116.99 261.154C118.838 265.776 122.536 269.011 128.082 270.86C133.936 272.401 143.488 273.171 156.738 273.171Z" fill="url(#paint0_linear_7850_330)"/>
<path d="M170.875 91.7773C170.875 82.7682 178.178 75.4648 187.187 75.4648H404.687C413.696 75.4648 420.999 82.7682 420.999 91.7773V140.715C420.999 149.724 413.696 157.027 404.687 157.027H187.187C178.178 157.027 170.875 149.724 170.875 140.715V91.7773Z" fill="#FF2231"/>
<path d="M224.574 125.097H237.493V130.839H216.918V126.054L229.576 106.131H217.222V100.389H237.232V105.13L224.574 125.097Z" fill="white"/>
<path d="M245.09 122.269C245.844 124.995 247.888 126.358 251.223 126.358C253.369 126.358 254.993 125.633 256.095 124.183L260.619 126.793C258.473 129.896 255.312 131.448 251.136 131.448C247.54 131.448 244.655 130.36 242.48 128.185C240.305 126.01 239.217 123.27 239.217 119.964C239.217 116.687 240.29 113.961 242.436 111.786C244.582 109.582 247.337 108.48 250.701 108.48C253.891 108.48 256.515 109.582 258.574 111.786C260.662 113.99 261.706 116.716 261.706 119.964C261.706 120.689 261.634 121.457 261.489 122.269H245.09ZM245.003 117.919H256.095C255.776 116.44 255.109 115.338 254.094 114.613C253.108 113.888 251.977 113.526 250.701 113.526C249.193 113.526 247.946 113.917 246.96 114.7C245.974 115.454 245.322 116.527 245.003 117.919Z" fill="white"/>
<path d="M271.235 112.83C271.757 111.438 272.613 110.394 273.802 109.698C275.02 109.002 276.368 108.654 277.847 108.654V114.918C276.136 114.715 274.599 115.063 273.236 115.962C271.902 116.861 271.235 118.354 271.235 120.442V130.839H265.624V109.089H271.235V112.83Z" fill="white"/>
<path d="M298.853 128.142C296.62 130.346 293.894 131.448 290.675 131.448C287.456 131.448 284.73 130.346 282.497 128.142C280.293 125.909 279.191 123.183 279.191 119.964C279.191 116.745 280.293 114.033 282.497 111.829C284.73 109.596 287.456 108.48 290.675 108.48C293.894 108.48 296.62 109.596 298.853 111.829C301.086 114.033 302.202 116.745 302.202 119.964C302.202 123.183 301.086 125.909 298.853 128.142ZM286.455 124.27C287.586 125.401 288.993 125.967 290.675 125.967C292.357 125.967 293.763 125.401 294.894 124.27C296.025 123.139 296.591 121.704 296.591 119.964C296.591 118.224 296.025 116.788 294.894 115.657C293.763 114.526 292.357 113.961 290.675 113.961C288.993 113.961 287.586 114.526 286.455 115.657C285.354 116.788 284.802 118.224 284.802 119.964C284.802 121.704 285.354 123.139 286.455 124.27Z" fill="white"/>
<path d="M335.469 106.131H323.289V113.352H335.121V119.094H323.289V130.839H317.286V100.389H335.469V106.131Z" fill="white"/>
<path d="M344.324 122.269C345.078 124.995 347.122 126.358 350.457 126.358C352.603 126.358 354.227 125.633 355.329 124.183L359.853 126.793C357.707 129.896 354.546 131.448 350.37 131.448C346.774 131.448 343.889 130.36 341.714 128.185C339.539 126.01 338.451 123.27 338.451 119.964C338.451 116.687 339.524 113.961 341.67 111.786C343.816 109.582 346.571 108.48 349.935 108.48C353.125 108.48 355.749 109.582 357.808 111.786C359.896 113.99 360.94 116.716 360.94 119.964C360.94 120.689 360.868 121.457 360.723 122.269H344.324ZM344.237 117.919H355.329C355.01 116.44 354.343 115.338 353.328 114.613C352.342 113.888 351.211 113.526 349.935 113.526C348.427 113.526 347.18 113.917 346.194 114.7C345.208 115.454 344.556 116.527 344.237 117.919Z" fill="white"/>
<path d="M369.429 122.269C370.183 124.995 372.228 126.358 375.563 126.358C377.709 126.358 379.333 125.633 380.435 124.183L384.959 126.793C382.813 129.896 379.652 131.448 375.476 131.448C371.88 131.448 368.994 130.36 366.819 128.185C364.644 126.01 363.557 123.27 363.557 119.964C363.557 116.687 364.63 113.961 366.776 111.786C368.922 109.582 371.677 108.48 375.041 108.48C378.231 108.48 380.855 109.582 382.914 111.786C385.002 113.99 386.046 116.716 386.046 119.964C386.046 120.689 385.974 121.457 385.829 122.269H369.429ZM369.342 117.919H380.435C380.116 116.44 379.449 115.338 378.434 114.613C377.448 113.888 376.317 113.526 375.041 113.526C373.533 113.526 372.286 113.917 371.3 114.7C370.314 115.454 369.661 116.527 369.342 117.919Z" fill="white"/>
<defs>
<linearGradient id="paint0_linear_7850_330" x1="69" y1="7" x2="247.5" y2="302.5" gradientUnits="userSpaceOnUse">
<stop stop-color="#3653F1"/>
<stop offset="1" stop-color="#1A35C8"/>
</linearGradient>
</defs>
</svg>
